<svg width="46" height="37" viewBox="0 0 46 37" fill="none" xmlns="http://www.w3.org/2000/svg">
<g clip-path="url(#clip0_291_451)">
<path d="M29.3416 7.72703C28.4944 6.87985 27.1207 6.87985 26.2739 7.72703L12.4681 21.5333C10.7729 23.2272 8.02628 23.2272 6.33237 21.5333C4.63667 19.8389 4.63667 17.0919 6.33237 15.3966L19.8724 1.85658C18.1781 0.161769 15.4306 0.161769 13.7362 1.85658L3.26337 12.329C-0.1249 15.7181 -0.1249 21.2118 3.26337 24.6014C6.65254 27.9906 12.1462 27.9906 15.5353 24.6014L29.3416 10.7951C30.1883 9.94796 30.1883 8.57421 29.3416 7.72703ZM33.9435 3.12555C30.5543 -0.264069 25.0607 -0.264069 21.6715 3.12555L7.86575 16.9309C7.01902 17.7776 7.01902 19.1523 7.86575 19.999C8.71293 20.8462 10.0862 20.8462 10.9334 19.999L24.7401 6.19365C26.4345 4.49885 29.1811 4.49885 30.875 6.19365C31.723 7.04039 33.0963 7.04039 33.9435 6.19365C34.7907 5.34558 34.7907 3.97273 33.9435 3.12555ZM38.5459 16.9309C37.6987 16.0846 36.3245 16.0846 35.4773 16.9309L21.6715 30.7367C19.9772 32.4311 17.2297 32.4311 15.5353 30.7367C14.6886 29.89 13.3153 29.89 12.4681 30.7367C11.6196 31.5843 11.6196 32.9581 12.4681 33.8043C15.856 37.1935 21.3509 37.1935 24.7401 33.8043L38.5459 19.999C39.3926 19.1523 39.3926 17.7776 38.5459 16.9309ZM43.1483 12.3294C39.7591 8.94069 34.2646 8.94069 30.8763 12.3294L17.0696 26.1357C16.2224 26.9819 16.2224 28.3566 17.0696 29.2033C17.9172 30.0509 19.291 30.0509 20.1377 29.2033L33.9435 15.3975C35.6374 13.7027 38.3854 13.7027 40.0793 15.3975C41.7736 17.0919 41.7736 19.8389 40.0793 21.5333L26.5392 35.0738C28.2336 36.7677 30.9797 36.7677 32.6754 35.0738L43.1483 24.6014C46.5365 21.2118 46.5365 15.7181 43.1483 12.3294Z" fill="#959A9B"/>
</g>
<defs>
<clipPath id="clip0_291_451">
<rect width="44.9673" height="35.8333" fill="white" transform="translate(0.722168 0.583336)"/>
</clipPath>
</defs>
</svg>
