<svg width="944" height="495" viewBox="0 0 944 495" fill="none" xmlns="http://www.w3.org/2000/svg">
<g clip-path="url(#clip0_126_223)">
<path d="M0 40C0 17.9086 17.9086 0 40 0H904C926.091 0 944 17.9086 944 40V455C944 477.091 926.091 495 904 495H40C17.9086 495 0 477.091 0 455V40Z" fill="#00B8EC"/>
<g filter="url(#filter0_d_126_223)">
<rect width="157.875" height="157.875" rx="29.236" transform="matrix(-0.965926 -0.258819 -0.258819 0.965926 912.521 178.598)" fill="white"/>
</g>
<g clip-path="url(#clip1_126_223)">
<path d="M829.279 180.507C799.643 172.566 769.187 190.15 761.246 219.786C753.308 249.412 770.889 279.878 800.525 287.819C830.161 295.76 860.616 278.176 868.557 248.54C876.489 218.901 858.905 188.446 829.279 180.507ZM795.502 252.919L786.564 250.524L798.544 205.816L807.481 208.21L795.502 252.919ZM831.262 262.501L804.439 255.313L806.834 246.376L833.657 253.563L831.262 262.501ZM836.055 244.615L809.232 237.428L811.627 228.49L838.45 235.678L836.055 244.615ZM840.847 226.73L814.024 219.543L816.419 210.605L843.242 217.793L840.847 226.73Z" fill="#92003B"/>
</g>
<g filter="url(#filter1_d_126_223)">
<rect width="157.875" height="157.875" rx="29.236" transform="matrix(-0.965926 -0.258819 -0.258819 0.965926 788.211 339.776)" fill="white" shape-rendering="crispEdges"/>
<rect width="157.875" height="157.875" rx="29.236" transform="matrix(-0.965926 -0.258819 -0.258819 0.965926 788.211 339.776)" fill="white"/>
<g clip-path="url(#clip2_126_223)">
<path d="M645.56 383.274C640.685 401.47 647.046 420.029 660.383 431.59L654.554 365.631C650.347 370.813 647.283 376.825 645.56 383.274V383.274ZM723.188 401.587C724.711 395.906 723.724 391.424 722.794 387.893C721.479 383.482 720.154 379.69 721.168 375.903C722.301 371.677 726.56 368.602 731.074 369.812C731.278 369.866 731.465 369.943 731.66 370.008C725.489 360.323 715.818 352.828 703.85 349.622C687.789 345.318 671.451 349.772 659.887 360.051C660.957 360.372 661.967 360.667 662.831 360.899C667.639 362.187 675.239 363.598 675.239 363.598C677.756 364.116 677.073 367.834 674.519 367.464C674.519 367.464 671.95 367.089 669.14 366.492L672.538 420.773L690.684 393.296L688.779 371.753C686.343 370.944 684.076 370.023 684.076 370.023C681.638 369.214 682.943 365.504 685.381 366.314C685.381 366.314 692.817 368.931 697.334 370.142C702.142 371.43 709.742 372.841 709.742 372.841C712.261 373.36 711.577 377.077 709.022 376.707C709.022 376.707 706.448 376.331 703.643 375.735L707.015 429.605L715.706 415.511C719.397 409.685 722.134 405.523 723.188 401.587V401.587Z" fill="#21759B"/>
<path d="M691.261 399.829L666.728 436.213C670.612 438.585 674.817 440.388 679.213 441.566C684.566 443 689.948 443.45 695.177 443.051C695.104 442.815 695.051 442.574 695.02 442.33L691.261 399.829ZM737.78 384.344C737.585 385.861 737.276 387.463 736.823 389.154C735.573 393.819 733.297 398.83 728.915 404.684L703.994 441.521C719.797 437.213 732.957 424.87 737.502 407.91C739.644 399.918 739.616 391.855 737.78 384.344V384.344Z" fill="#21759B"/>
<path d="M705.89 342.004C676.342 334.087 645.86 351.684 637.943 381.232C630.024 410.784 647.624 441.264 677.172 449.181C706.72 457.099 737.205 439.503 745.123 409.951C753.04 380.403 735.438 349.921 705.89 342.004ZM677.83 446.725C649.637 439.171 632.845 410.086 640.4 381.891C647.954 353.697 677.038 336.907 705.232 344.461C733.424 352.015 750.215 381.098 742.661 409.292C735.106 437.487 706.023 454.279 677.83 446.725Z" fill="#21759B"/>
</g>
</g>
<g filter="url(#filter2_d_126_223)">
<rect width="157.875" height="157.875" rx="29.236" transform="matrix(-0.965926 -0.258819 -0.258819 0.965926 730.147 129.802)" fill="#BFEDFA"/>
</g>
<g filter="url(#filter3_d_126_223)">
<rect width="157.875" height="157.875" rx="29.236" transform="matrix(-0.965926 -0.258819 -0.258819 0.965926 885.752 -24.7791)" fill="#40CAF1"/>
</g>
<g filter="url(#filter4_d_126_223)">
<rect width="157.875" height="157.875" rx="29.236" transform="matrix(-0.965926 -0.258819 -0.258819 0.965926 969.888 388.456)" fill="#BFEDFA"/>
</g>
<g filter="url(#filter5_d_126_223)">
<rect width="157.875" height="157.875" rx="29.236" transform="matrix(-0.965926 -0.258819 -0.258819 0.965926 704.147 -73.1978)" fill="#BFEDFA"/>
</g>
<g filter="url(#filter6_d_126_223)">
<rect width="157.875" height="157.875" rx="29.236" transform="matrix(-0.965926 -0.258819 -0.258819 0.965926 1067.75 23.2209)" fill="#40CAF1"/>
</g>
<g filter="url(#filter7_d_126_223)">
<rect width="157.875" height="157.875" rx="29.236" transform="matrix(-0.965926 -0.258819 -0.258819 0.965926 1094.82 227.21)" fill="#BFEDFA"/>
</g>
<g filter="url(#filter8_d_126_223)">
<rect width="530.6" height="309.861" rx="36.1937" transform="matrix(1 0 0 -1 -42 366.196)" fill="white" shape-rendering="crispEdges"/>
<path d="M477.25 366.197H-30.6503C-36.9208 366.197 -42.0002 361.115 -42.0002 354.847L-42.0002 67.6831C-42.0002 61.4151 -36.9208 56.3358 -30.6503 56.3358H477.25C483.52 56.3358 488.6 61.4151 488.6 67.6831V354.847C488.6 361.115 483.52 366.197 477.25 366.197Z" fill="#BFEDFA"/>
<path d="M-34.6814 350.834V90.5068C-34.6814 86.7302 -31.6219 83.6681 -27.8427 83.6681H474.442C478.221 83.6681 481.283 86.7302 481.283 90.5068V350.834C481.283 354.611 478.221 357.673 474.442 357.673H-27.8427C-31.6219 357.673 -34.6814 354.611 -34.6814 350.834Z" fill="white"/>
<path d="M477.86 70.0119C477.86 73.7216 474.852 76.7314 471.14 76.7314C467.43 76.7314 464.42 73.7216 464.42 70.0119C464.42 66.2997 467.43 63.2923 471.14 63.2923C474.852 63.2923 477.86 66.2997 477.86 70.0119Z" fill="white"/>
<path d="M455.659 70.0114C455.659 73.7211 452.652 76.731 448.94 76.731C445.23 76.731 442.22 73.7211 442.22 70.0114C442.22 66.2992 445.23 63.2918 448.94 63.2918C452.652 63.2918 455.659 66.2992 455.659 70.0114Z" fill="white"/>
<path d="M433.463 70.0116C433.463 73.7213 430.455 76.7312 426.743 76.7312C423.031 76.7312 420.023 73.7213 420.023 70.0116C420.023 66.2995 423.031 63.292 426.743 63.292C430.455 63.292 433.463 66.2995 433.463 70.0116Z" fill="white"/>
<path d="M174.092 235.993V239.095H170.99V240.335H174.712L175.152 240.154L175.333 239.715V235.993H174.092Z" fill="#782CE4"/>
<path d="M197.641 262.405H1.55933L1.55933 121.643H197.641V262.405Z" fill="#00B8EC"/>
<path d="M184.954 251.109V248.628H17.9816L67.8624 154.526L106.133 220.546C106.522 221.221 107.217 221.675 107.991 221.767C108.766 221.859 109.545 221.573 110.081 221.01L135.609 194.062L183.026 252.67L184.954 251.109V248.628V251.109L186.885 249.549L137.686 188.737C137.234 188.179 136.57 187.846 135.852 187.819C135.135 187.792 134.448 188.07 133.954 188.593L108.761 215.186L69.912 148.167C69.4604 147.387 68.6192 146.914 67.7185 146.931C66.8153 146.948 65.9964 147.452 65.5721 148.248L11.6664 249.948C11.257 250.717 11.2843 251.643 11.7309 252.39C12.1801 253.134 12.9865 253.591 13.8575 253.591H184.954C185.912 253.591 186.783 253.042 187.195 252.179C187.607 251.315 187.485 250.293 186.885 249.549L184.954 251.109Z" fill="white"/>
<path d="M133.083 155.015H130.601C130.601 158.961 129.008 162.509 126.425 165.097C123.837 167.683 120.286 169.273 116.341 169.276C112.395 169.273 108.847 167.683 106.259 165.097C103.676 162.509 102.083 158.961 102.083 155.015C102.083 151.07 103.676 147.521 106.259 144.933C108.847 142.348 112.395 140.757 116.341 140.755C120.286 140.757 123.837 142.348 126.425 144.933C129.008 147.521 130.601 151.07 130.601 155.015H133.083H135.564C135.562 144.397 126.959 135.794 116.341 135.792C105.725 135.794 97.1224 144.397 97.1199 155.015C97.1224 165.633 105.725 174.236 116.341 174.238C126.959 174.236 135.562 165.633 135.564 155.015H133.083Z" fill="white"/>
<path d="M464.42 116.146H220.177V101.128H464.42V116.146Z" fill="#80DBF5"/>
<path d="M290.368 136.298H220.177V128.789H290.368V136.298Z" fill="#BFEDFA"/>
<path d="M328.427 136.298H299.941V128.789H328.427V136.298Z" fill="#BFEDFA"/>
<path d="M414.118 136.298H339.371V128.789H414.118V136.298Z" fill="#BFEDFA"/>
<path d="M464.419 136.298H420.022V128.789H464.419V136.298Z" fill="#BFEDFA"/>
<path d="M312.703 155.015H220.177V147.506H312.703V155.015Z" fill="#BFEDFA"/>
<path d="M358.965 155.015H322.96V147.506H358.965V155.015Z" fill="#BFEDFA"/>
<path d="M403.18 155.015H367.175V147.506H403.18V155.015Z" fill="#BFEDFA"/>
<path d="M454.457 155.015H408.74V147.506H454.457V155.015Z" fill="#BFEDFA"/>
<path d="M245.929 173.732H220.177V166.224H245.929V173.732Z" fill="#BFEDFA"/>
<path d="M387.226 173.732H340.963V166.224H387.226V173.732Z" fill="#BFEDFA"/>
<path d="M333.212 173.732H251.855V166.224H333.212V173.732Z" fill="#BFEDFA"/>
<path d="M278.515 192.45H220.177V184.938H278.515V192.45Z" fill="#BFEDFA"/>
<path d="M308.145 192.45H288.547V184.938H308.145V192.45Z" fill="#BFEDFA"/>
<path d="M355.775 192.45H317.264V184.938H355.775V192.45Z" fill="#BFEDFA"/>
<path d="M242.509 211.164H220.177V203.656H242.509V211.164Z" fill="#BFEDFA"/>
<path d="M299.941 211.164H250.944V203.656H299.941V211.164Z" fill="#BFEDFA"/>
<path d="M197.641 342.494H-21.3662V277.35H197.641V342.494Z" fill="#BFEDFA"/>
<path d="M26.0156 320.427H-15.5452L-15.5452 281.769H26.0156V320.427Z" fill="#BFEDFA"/>
<path d="M26.0153 337.658H-15.5454V326.169H26.0153V337.658Z" fill="#BFEDFA"/>
<path d="M37.415 299H78.9759V337.658H37.415V299Z" fill="#BFEDFA"/>
<path d="M37.415 281.77H78.9759V293.256H37.415V281.77Z" fill="#BFEDFA"/>
<path d="M136.046 320.427H94.4824V281.77H136.046V320.427Z" fill="#BFEDFA"/>
<path d="M136.045 337.658H94.4819V326.169H136.045V337.658Z" fill="#BFEDFA"/>
<path d="M147.445 299H189.008V337.658H147.445V299Z" fill="#BFEDFA"/>
<path d="M147.445 281.77H189.008V293.256H147.445V281.77Z" fill="#BFEDFA"/>
<path d="M471.781 238.06H225.266V229.708C225.266 226.881 227.553 224.594 230.38 224.594H466.667C469.491 224.594 471.781 226.881 471.781 229.708V238.06Z" fill="#BFEDFA"/>
<path d="M471.782 232.981H225.267V337.556C225.267 341.276 228.279 344.291 231.999 344.291H465.048C468.768 344.291 471.782 341.276 471.782 337.556V232.981ZM469.301 235.462V337.556C469.301 339.901 467.393 341.809 465.048 341.809H231.999C229.654 341.809 227.748 339.901 227.748 337.556V235.462H469.301Z" fill="#BFEDFA"/>
<path d="M264.856 335.851H233.839V246.365H264.856V335.851Z" fill="#BFEDFA"/>
<path d="M461.005 335.851H311.139V246.365H461.005V335.851Z" fill="#BFEDFA"/>
<path d="M453.663 260.236H319.125V251.11H453.663V260.236Z" fill="#BFEDFA"/>
<path d="M453.664 270.288H319.126V265.725H453.664V270.288Z" fill="#BFEDFA"/>
<path d="M302.393 276.397H271.375V265.725H302.393V276.397Z" fill="#BFEDFA"/>
<path d="M348.065 329.137H319.125V274.412H348.065V329.137Z" fill="#BFEDFA"/>
<path d="M419.119 329.137H390.176V274.412H419.119V329.137Z" fill="#BFEDFA"/>
<path d="M356.872 327.896H383.331V275.65H356.872V327.896ZM385.812 330.377H354.391V273.169H385.812V330.377Z" fill="#BFEDFA"/>
<path d="M425.964 327.896H452.423V275.651H425.964V327.896ZM454.904 330.378H423.482V273.169H454.904V330.378Z" fill="#BFEDFA"/>
<path d="M302.391 295.755H271.374V285.085H302.391V295.755Z" fill="#BFEDFA"/>
<path d="M302.392 315.115H271.375V304.442H302.392V315.115Z" fill="#BFEDFA"/>
<path d="M302.392 334.474H271.375V323.802H302.392V334.474Z" fill="#BFEDFA"/>
</g>
<g filter="url(#filter9_d_126_223)">
<rect width="234.031" height="141" rx="14.5361" transform="matrix(1 0 0 -1 38.969 423)" fill="white" shape-rendering="crispEdges"/>
<path d="M267.909 423H43.5123C41.0036 423 38.969 421.066 38.969 418.68V286.539C38.969 284.153 41.0036 282.219 43.5123 282.219H267.909C270.418 282.219 272.45 284.153 272.45 286.539V418.68C272.45 421.066 270.418 423 267.909 423Z" fill="#00B8EC"/>
<path d="M42.6116 415.241V296.279C42.6116 294.399 44.2154 292.873 46.1902 292.873H266.075C268.051 292.873 269.653 294.399 269.653 296.279V415.241C269.653 417.122 268.051 418.646 266.075 418.646H46.1902C44.2154 418.646 42.6116 417.122 42.6116 415.241Z" fill="white"/>
<path d="M268.148 287.158C268.148 288.712 266.823 289.971 265.19 289.971C263.557 289.971 262.232 288.712 262.232 287.158C262.232 285.605 263.557 284.344 265.19 284.344C266.823 284.344 268.148 285.605 268.148 287.158Z" fill="white"/>
<path d="M258.378 287.158C258.378 288.712 257.056 289.971 255.424 289.971C253.789 289.971 252.466 288.712 252.466 287.158C252.466 285.605 253.789 284.344 255.424 284.344C257.056 284.344 258.378 285.605 258.378 287.158Z" fill="white"/>
<path d="M248.61 287.158C248.61 288.712 247.287 289.971 245.654 289.971C244.022 289.971 242.696 288.712 242.696 287.158C242.696 285.605 244.022 284.344 245.654 284.344C247.287 284.344 248.61 285.605 248.61 287.158Z" fill="white"/>
<path d="M74.6481 315.386C74.6481 321.666 69.2967 326.759 62.6961 326.759C56.0934 326.759 50.7419 321.666 50.7419 315.386C50.7419 309.107 56.0934 304.014 62.6961 304.014C69.2967 304.014 74.6481 309.107 74.6481 315.386Z" fill="#00B8EC"/>
<path d="M258.378 309.476H80.1399V304.104H258.378V309.476Z" fill="#00B8EC"/>
<path d="M201.448 318.071H80.1399V312.701H201.448V318.071Z" fill="#00B8EC"/>
<path d="M143.219 327.2H80.1399V321.827H143.219V327.2Z" fill="#00B8EC"/>
<path d="M74.6481 351.604C74.6481 357.883 69.2967 362.974 62.6961 362.974C56.0934 362.974 50.7419 357.883 50.7419 351.604C50.7419 345.322 56.0934 340.231 62.6961 340.231C69.2967 340.231 74.6481 345.322 74.6481 351.604Z" fill="#80DBF5"/>
<path d="M258.378 345.691H80.1399V340.32H258.378V345.691Z" fill="#BFEDFA"/>
<path d="M201.448 354.288H80.1399V348.917H201.448V354.288Z" fill="#BFEDFA"/>
<path d="M143.219 363.414H80.1399V358.044H143.219V363.414Z" fill="#BFEDFA"/>
<path d="M74.6481 387.817C74.6481 394.099 69.2967 399.19 62.6961 399.19C56.0934 399.19 50.7419 394.099 50.7419 387.817C50.7419 381.538 56.0934 376.447 62.6961 376.447C69.2967 376.447 74.6481 381.538 74.6481 387.817Z" fill="#BFEDFA"/>
<path d="M258.378 381.906H80.1399V376.535H258.378V381.906Z" fill="#80DBF5"/>
<path d="M201.448 390.504H80.1399V385.133H201.448V390.504Z" fill="#BFEDFA"/>
<path d="M143.219 399.631H80.1399V394.26H143.219V399.631Z" fill="#BFEDFA"/>
</g>
</g>
<defs>
<filter id="filter0_d_126_223" x="703.729" y="132.301" width="224.229" height="224.229" filterUnits="userSpaceOnUse" color-interpolation-filters="sRGB">
<feFlood flood-opacity="0" result="BackgroundImageFix"/>
<feColorMatrix in="SourceAlpha" type="matrix" values="0 0 0 0 0 0 0 0 0 0 0 0 0 0 0 0 0 0 127 0" result="hardAlpha"/>
<feMorphology radius="2" operator="dilate" in="SourceAlpha" result="effect1_dropShadow_126_223"/>
<feOffset dy="10"/>
<feGaussianBlur stdDeviation="10"/>
<feComposite in2="hardAlpha" operator="out"/>
<feColorMatrix type="matrix" values="0 0 0 0 0.00286728 0 0 0 0 0.533667 0 0 0 0 0.683675 0 0 0 0.23 0"/>
<feBlend mode="normal" in2="BackgroundImageFix" result="effect1_dropShadow_126_223"/>
<feBlend mode="normal" in="SourceGraphic" in2="effect1_dropShadow_126_223" result="shape"/>
</filter>
<filter id="filter1_d_126_223" x="572.855" y="286.915" width="237.356" height="237.356" filterUnits="userSpaceOnUse" color-interpolation-filters="sRGB">
<feFlood flood-opacity="0" result="BackgroundImageFix"/>
<feColorMatrix in="SourceAlpha" type="matrix" values="0 0 0 0 0 0 0 0 0 0 0 0 0 0 0 0 0 0 127 0" result="hardAlpha"/>
<feMorphology radius="2" operator="dilate" in="SourceAlpha" result="effect1_dropShadow_126_223"/>
<feOffset dy="10"/>
<feGaussianBlur stdDeviation="10"/>
<feComposite in2="hardAlpha" operator="out"/>
<feColorMatrix type="matrix" values="0 0 0 0 0.00286728 0 0 0 0 0.533667 0 0 0 0 0.683675 0 0 0 0.23 0"/>
<feBlend mode="normal" in2="BackgroundImageFix" result="effect1_dropShadow_126_223"/>
<feBlend mode="normal" in="SourceGraphic" in2="effect1_dropShadow_126_223" result="shape"/>
</filter>
<filter id="filter2_d_126_223" x="521.355" y="83.5046" width="224.229" height="224.229" filterUnits="userSpaceOnUse" color-interpolation-filters="sRGB">
<feFlood flood-opacity="0" result="BackgroundImageFix"/>
<feColorMatrix in="SourceAlpha" type="matrix" values="0 0 0 0 0 0 0 0 0 0 0 0 0 0 0 0 0 0 127 0" result="hardAlpha"/>
<feMorphology radius="2" operator="dilate" in="SourceAlpha" result="effect1_dropShadow_126_223"/>
<feOffset dy="10"/>
<feGaussianBlur stdDeviation="10"/>
<feComposite in2="hardAlpha" operator="out"/>
<feColorMatrix type="matrix" values="0 0 0 0 0.00286728 0 0 0 0 0.533667 0 0 0 0 0.683675 0 0 0 0.23 0"/>
<feBlend mode="normal" in2="BackgroundImageFix" result="effect1_dropShadow_126_223"/>
<feBlend mode="normal" in="SourceGraphic" in2="effect1_dropShadow_126_223" result="shape"/>
</filter>
<filter id="filter3_d_126_223" x="676.96" y="-71.0767" width="224.229" height="224.229" filterUnits="userSpaceOnUse" color-interpolation-filters="sRGB">
<feFlood flood-opacity="0" result="BackgroundImageFix"/>
<feColorMatrix in="SourceAlpha" type="matrix" values="0 0 0 0 0 0 0 0 0 0 0 0 0 0 0 0 0 0 127 0" result="hardAlpha"/>
<feMorphology radius="2" operator="dilate" in="SourceAlpha" result="effect1_dropShadow_126_223"/>
<feOffset dy="10"/>
<feGaussianBlur stdDeviation="10"/>
<feComposite in2="hardAlpha" operator="out"/>
<feColorMatrix type="matrix" values="0 0 0 0 0.00286728 0 0 0 0 0.533667 0 0 0 0 0.683675 0 0 0 0.23 0"/>
<feBlend mode="normal" in2="BackgroundImageFix" result="effect1_dropShadow_126_223"/>
<feBlend mode="normal" in="SourceGraphic" in2="effect1_dropShadow_126_223" result="shape"/>
</filter>
<filter id="filter4_d_126_223" x="761.095" y="342.159" width="224.229" height="224.229" filterUnits="userSpaceOnUse" color-interpolation-filters="sRGB">
<feFlood flood-opacity="0" result="BackgroundImageFix"/>
<feColorMatrix in="SourceAlpha" type="matrix" values="0 0 0 0 0 0 0 0 0 0 0 0 0 0 0 0 0 0 127 0" result="hardAlpha"/>
<feMorphology radius="2" operator="dilate" in="SourceAlpha" result="effect1_dropShadow_126_223"/>
<feOffset dy="10"/>
<feGaussianBlur stdDeviation="10"/>
<feComposite in2="hardAlpha" operator="out"/>
<feColorMatrix type="matrix" values="0 0 0 0 0.00286728 0 0 0 0 0.533667 0 0 0 0 0.683675 0 0 0 0.23 0"/>
<feBlend mode="normal" in2="BackgroundImageFix" result="effect1_dropShadow_126_223"/>
<feBlend mode="normal" in="SourceGraphic" in2="effect1_dropShadow_126_223" result="shape"/>
</filter>
<filter id="filter5_d_126_223" x="495.355" y="-119.495" width="224.229" height="224.229" filterUnits="userSpaceOnUse" color-interpolation-filters="sRGB">
<feFlood flood-opacity="0" result="BackgroundImageFix"/>
<feColorMatrix in="SourceAlpha" type="matrix" values="0 0 0 0 0 0 0 0 0 0 0 0 0 0 0 0 0 0 127 0" result="hardAlpha"/>
<feMorphology radius="2" operator="dilate" in="SourceAlpha" result="effect1_dropShadow_126_223"/>
<feOffset dy="10"/>
<feGaussianBlur stdDeviation="10"/>
<feComposite in2="hardAlpha" operator="out"/>
<feColorMatrix type="matrix" values="0 0 0 0 0.00286728 0 0 0 0 0.533667 0 0 0 0 0.683675 0 0 0 0.23 0"/>
<feBlend mode="normal" in2="BackgroundImageFix" result="effect1_dropShadow_126_223"/>
<feBlend mode="normal" in="SourceGraphic" in2="effect1_dropShadow_126_223" result="shape"/>
</filter>
<filter id="filter6_d_126_223" x="858.96" y="-23.0767" width="224.229" height="224.229" filterUnits="userSpaceOnUse" color-interpolation-filters="sRGB">
<feFlood flood-opacity="0" result="BackgroundImageFix"/>
<feColorMatrix in="SourceAlpha" type="matrix" values="0 0 0 0 0 0 0 0 0 0 0 0 0 0 0 0 0 0 127 0" result="hardAlpha"/>
<feMorphology radius="2" operator="dilate" in="SourceAlpha" result="effect1_dropShadow_126_223"/>
<feOffset dy="10"/>
<feGaussianBlur stdDeviation="10"/>
<feComposite in2="hardAlpha" operator="out"/>
<feColorMatrix type="matrix" values="0 0 0 0 0.00286728 0 0 0 0 0.533667 0 0 0 0 0.683675 0 0 0 0.23 0"/>
<feBlend mode="normal" in2="BackgroundImageFix" result="effect1_dropShadow_126_223"/>
<feBlend mode="normal" in="SourceGraphic" in2="effect1_dropShadow_126_223" result="shape"/>
</filter>
<filter id="filter7_d_126_223" x="886.023" y="180.913" width="224.229" height="224.229" filterUnits="userSpaceOnUse" color-interpolation-filters="sRGB">
<feFlood flood-opacity="0" result="BackgroundImageFix"/>
<feColorMatrix in="SourceAlpha" type="matrix" values="0 0 0 0 0 0 0 0 0 0 0 0 0 0 0 0 0 0 127 0" result="hardAlpha"/>
<feMorphology radius="2" operator="dilate" in="SourceAlpha" result="effect1_dropShadow_126_223"/>
<feOffset dy="10"/>
<feGaussianBlur stdDeviation="10"/>
<feComposite in2="hardAlpha" operator="out"/>
<feColorMatrix type="matrix" values="0 0 0 0 0.00286728 0 0 0 0 0.533667 0 0 0 0 0.683675 0 0 0 0.23 0"/>
<feBlend mode="normal" in2="BackgroundImageFix" result="effect1_dropShadow_126_223"/>
<feBlend mode="normal" in="SourceGraphic" in2="effect1_dropShadow_126_223" result="shape"/>
</filter>
<filter id="filter8_d_126_223" x="-69.2359" y="34.052" width="585.072" height="364.332" filterUnits="userSpaceOnUse" color-interpolation-filters="sRGB">
<feFlood flood-opacity="0" result="BackgroundImageFix"/>
<feColorMatrix in="SourceAlpha" type="matrix" values="0 0 0 0 0 0 0 0 0 0 0 0 0 0 0 0 0 0 127 0" result="hardAlpha"/>
<feMorphology radius="2.47597" operator="dilate" in="SourceAlpha" result="effect1_dropShadow_126_223"/>
<feOffset dy="4.95194"/>
<feGaussianBlur stdDeviation="12.3798"/>
<feComposite in2="hardAlpha" operator="out"/>
<feColorMatrix type="matrix" values="0 0 0 0 0 0 0 0 0 0.484268 0 0 0 0 0.621126 0 0 0 1 0"/>
<feBlend mode="normal" in2="BackgroundImageFix" result="effect1_dropShadow_126_223"/>
<feBlend mode="normal" in="SourceGraphic" in2="effect1_dropShadow_126_223" result="shape"/>
</filter>
<filter id="filter9_d_126_223" x="6.98961" y="255.835" width="297.99" height="204.959" filterUnits="userSpaceOnUse" color-interpolation-filters="sRGB">
<feFlood flood-opacity="0" result="BackgroundImageFix"/>
<feColorMatrix in="SourceAlpha" type="matrix" values="0 0 0 0 0 0 0 0 0 0 0 0 0 0 0 0 0 0 127 0" result="hardAlpha"/>
<feMorphology radius="2.90722" operator="dilate" in="SourceAlpha" result="effect1_dropShadow_126_223"/>
<feOffset dy="5.81443"/>
<feGaussianBlur stdDeviation="14.5361"/>
<feComposite in2="hardAlpha" operator="out"/>
<feColorMatrix type="matrix" values="0 0 0 0 0 0 0 0 0 0.484268 0 0 0 0 0.621126 0 0 0 1 0"/>
<feBlend mode="normal" in2="BackgroundImageFix" result="effect1_dropShadow_126_223"/>
<feBlend mode="normal" in="SourceGraphic" in2="effect1_dropShadow_126_223" result="shape"/>
</filter>
<clipPath id="clip0_126_223">
<rect width="944" height="495" rx="40" transform="matrix(-1 0 0 1 944 0)" fill="white"/>
</clipPath>
<clipPath id="clip1_126_223">
<rect width="111.097" height="111.097" fill="white" transform="translate(775.623 166.13) rotate(15)"/>
</clipPath>
<clipPath id="clip2_126_223">
<rect width="111.097" height="111.097" fill="white" transform="translate(652.254 327.561) rotate(15)"/>
</clipPath>
</defs>
</svg>
