<svg width="44" height="38" viewBox="0 0 44 38" fill="none" xmlns="http://www.w3.org/2000/svg">
<g opacity="0.8" clip-path="url(#clip0_555_266)">
<path d="M35.7098 12.3145C35.2559 12.1594 34.7987 12.015 34.3383 11.8813C34.4147 11.5706 34.4851 11.2581 34.5496 10.9438C35.5882 5.89275 34.9091 1.82347 32.5913 0.483907C30.372 -0.801504 26.7324 0.538057 23.0608 3.74093C22.6998 4.05696 22.3462 4.38245 22 4.71742C21.7692 4.4949 21.5324 4.27711 21.2898 4.06406C17.4416 0.639256 13.5844 -0.80328 11.2693 0.54072C9.04999 1.82879 8.39042 5.65396 9.32518 10.4414C9.41869 10.9148 9.52373 11.3862 9.64032 11.8555C9.09438 12.0109 8.56707 12.1769 8.06285 12.3526C3.55681 13.9283 0.675293 16.3989 0.675293 18.9608C0.675293 21.608 3.76809 24.2622 8.46676 25.8717C8.84789 26.0013 9.23256 26.1217 9.62079 26.233C9.49474 26.7354 9.38318 27.2435 9.28612 27.7572C8.39841 32.462 9.09083 36.1967 11.3057 37.4767C13.5933 38.7986 17.4309 37.4404 21.1717 34.1647C21.4676 33.9055 21.7635 33.6318 22.0594 33.3435C22.4335 33.7051 22.8181 34.0561 23.2135 34.3964C26.8354 37.5194 30.412 38.7808 32.6233 37.4972C34.9091 36.1709 35.6521 32.1584 34.6872 27.2769C34.6132 26.9041 34.528 26.5235 34.4315 26.1353C34.7014 26.0554 34.9656 25.9729 35.2243 25.8876C40.1067 24.2658 43.2874 21.6435 43.2874 18.9635C43.2856 16.3891 40.3117 13.9026 35.7098 12.3145ZM24.2583 5.11689C27.4035 2.37296 30.3436 1.28995 31.684 2.06404C33.1106 2.88873 33.6654 6.2141 32.7688 10.5754C32.7097 10.8595 32.6457 11.1427 32.5771 11.425C30.7001 10.9981 28.7968 10.6968 26.8797 10.5231C25.7821 8.94194 24.5789 7.43679 23.2783 6.01792C23.5967 5.70899 23.9228 5.40865 24.2565 5.11689H24.2583ZM13.2569 21.1499C13.6421 21.8956 14.0449 22.6321 14.465 23.3594C14.8929 24.1016 15.3389 24.8327 15.8028 25.553C14.4838 25.4096 13.1729 25.1983 11.8756 24.92C12.252 23.7021 12.7154 22.4371 13.2569 21.1499ZM13.2569 16.8596C12.7242 15.5999 12.2733 14.3607 11.9031 13.164C13.1193 12.8915 14.4153 12.6687 15.7664 12.5C15.3137 13.2066 14.8781 13.9236 14.4597 14.6509C14.0413 15.3783 13.6395 16.1145 13.2542 16.8596H13.2569ZM14.2245 19.0052C14.7855 17.8352 15.3898 16.6877 16.0372 15.5626C16.684 14.4382 17.3726 13.3395 18.1029 12.2665C19.3706 12.1707 20.6702 12.1201 21.9831 12.1201C23.296 12.1201 24.6036 12.1707 25.8704 12.2674C26.593 13.338 27.2774 14.4329 27.9237 15.552C28.5699 16.6711 29.1822 17.8133 29.7604 18.9786C29.1899 20.1527 28.5791 21.305 27.9281 22.4353C27.2825 23.5598 26.6019 24.6617 25.8864 25.7412C24.6214 25.8299 23.312 25.8788 21.9804 25.8788C20.6489 25.8788 19.3643 25.837 18.1224 25.7563C17.3868 24.6798 16.6926 23.5763 16.0399 22.446C15.3871 21.3156 14.7811 20.1687 14.2218 19.0052H14.2245ZM29.5038 23.347C29.9329 22.6025 30.3448 21.8482 30.7395 21.0842C31.2806 22.3111 31.7583 23.565 32.1705 24.841C30.8579 25.1366 29.5307 25.3633 28.1944 25.5201C28.6454 24.8046 29.0819 24.0802 29.5038 23.347ZM30.7218 16.8605C30.3288 16.1118 29.9202 15.3721 29.4958 14.6412C29.0816 13.9204 28.6498 13.2084 28.2007 12.5053C29.5597 12.6776 30.8638 12.9066 32.0862 13.1862C31.6932 14.433 31.2378 15.6593 30.7218 16.8605V16.8605ZM22.0009 7.32197C22.8873 8.29056 23.7243 9.30325 24.5087 10.3562C22.8309 10.2763 21.1519 10.2763 19.4718 10.3562C20.3 9.26074 21.1478 8.24431 22.0009 7.32197ZM12.1854 2.11819C13.6111 1.29084 16.7633 2.47327 20.0861 5.4267C20.2982 5.61578 20.5122 5.81375 20.7252 6.01881C19.4179 7.43748 18.2062 8.94131 17.098 10.5204C15.1852 10.6928 13.2856 10.9893 11.4113 11.4081C11.303 10.9725 11.2054 10.534 11.1184 10.0925C10.315 5.98862 10.8467 2.89494 12.1854 2.11819ZM10.1073 24.4753C9.75217 24.3741 9.40153 24.2643 9.05532 24.1459C6.97807 23.4358 5.26211 22.509 4.08412 21.4997C3.02951 20.5951 2.49511 19.6923 2.49511 18.9608C2.49511 17.4064 4.80849 15.4233 8.6665 14.0784C9.15119 13.9097 9.64003 13.7555 10.133 13.6159C10.706 15.4572 11.3999 17.2588 12.2103 19.0087C11.3902 20.7829 10.6877 22.609 10.1073 24.4753V24.4753ZM19.9724 32.7905C18.3186 34.2393 16.6621 35.2663 15.2019 35.7839C13.8898 36.2482 12.845 36.2615 12.2138 35.8966C10.8698 35.1199 10.3105 32.1203 11.0731 28.0972C11.1636 27.6237 11.2672 27.1503 11.3838 26.6768C13.2769 27.0846 15.1955 27.3631 17.1264 27.5104C18.2454 29.0977 19.4672 30.61 20.7838 32.0377C20.5193 32.2978 20.2485 32.5482 19.9724 32.7905ZM22.0515 30.7292C21.1886 29.7962 20.3275 28.7638 19.4877 27.6542C20.3038 27.6861 21.1347 27.7021 21.9804 27.7021C22.8486 27.7021 23.7079 27.6835 24.5548 27.6453C23.7733 28.7151 22.9377 29.7444 22.0515 30.7292V30.7292ZM33.1053 33.2672C32.8514 34.6378 32.341 35.5522 31.7098 35.9179C30.3667 36.6973 27.4949 35.6845 24.3986 33.0133C24.0435 32.7079 23.6884 32.3804 23.3271 32.0368C24.6181 30.6036 25.8112 29.0851 26.8984 27.4917C28.84 27.3272 30.7679 27.0291 32.6685 26.5996C32.7555 26.9511 32.8325 27.2955 32.8993 27.6329C33.3263 29.79 33.3876 31.7412 33.1053 33.2672V33.2672ZM34.6499 24.1557C34.4173 24.2329 34.1776 24.3075 33.9344 24.3803C33.3384 22.5302 32.6174 20.7228 31.7764 18.9706C32.5859 17.2417 33.2787 15.4605 33.8501 13.6389C34.2859 13.7659 34.7094 13.899 35.1168 14.0402C39.0601 15.4002 41.4658 17.4135 41.4658 18.9608C41.4658 20.6119 38.8674 22.7549 34.6499 24.1557V24.1557Z" fill="#6A7173"/>
<path d="M21.9803 22.5363C22.7358 22.5387 23.475 22.317 24.1044 21.899C24.7337 21.4811 25.2249 20.8858 25.5157 20.1885C25.8066 19.4912 25.8839 18.7233 25.7381 17.9821C25.5922 17.2408 25.2296 16.5595 24.6963 16.0244C24.1629 15.4893 23.4828 15.1245 22.742 14.9762C22.0012 14.8279 21.2331 14.9028 20.5348 15.1913C19.8366 15.4799 19.2397 15.9691 18.8197 16.5971C18.3997 17.2251 18.1755 17.9636 18.1755 18.7191C18.1745 19.2196 18.2721 19.7155 18.4628 20.1783C18.6535 20.641 18.9335 21.0617 19.2868 21.4162C19.6402 21.7707 20.0599 22.0521 20.5221 22.2443C20.9843 22.4365 21.4798 22.5357 21.9803 22.5363Z" fill="#6A7173"/>
</g>
<defs>
<clipPath id="clip0_555_266">
<rect width="43.9608" height="38" fill="white"/>
</clipPath>
</defs>
</svg>
