<svg width="658" height="22" viewBox="0 0 658 22" fill="none" xmlns="http://www.w3.org/2000/svg">
<g filter="url(#filter0_i_507_729)">
<path d="M0.457031 4.29059C0.457031 2.30254 2.06866 0.690918 4.05671 0.690918H653.945C655.933 0.690918 657.544 2.30255 657.544 4.2906V21.4281H0.457031V4.29059Z" fill="#DADADA"/>
</g>
<path d="M29.7564 10.775C29.7564 12.1134 28.6872 13.19 27.3785 13.19C26.0698 13.19 25.0006 12.1134 25.0006 10.775C25.0006 9.43662 26.0698 8.35997 27.3785 8.35997C28.6872 8.35997 29.7564 9.43662 29.7564 10.775Z" fill="#00D641" stroke="#12B829" stroke-width="0.719936"/>
<path d="M20.6314 10.775C20.6314 12.1134 19.5622 13.19 18.2535 13.19C16.9448 13.19 15.8756 12.1134 15.8756 10.775C15.8756 9.43662 16.9448 8.35997 18.2535 8.35997C19.5622 8.35997 20.6314 9.43662 20.6314 10.775Z" fill="#FFBD00" stroke="#E79F13" stroke-width="0.719936"/>
<path d="M11.5044 10.775C11.5044 12.1134 10.4353 13.19 9.12654 13.19C7.81782 13.19 6.74864 12.1134 6.74864 10.775C6.74864 9.43662 7.81782 8.35997 9.12654 8.35997C10.4353 8.35997 11.5044 9.43662 11.5044 10.775Z" fill="#FF3B47" stroke="#EF1320" stroke-width="0.719936"/>
<g filter="url(#filter1_i_507_729)">
<rect x="36.0479" y="5.05688" width="11.4078" height="12.0057" rx="2.87974" fill="url(#paint0_linear_507_729)"/>
</g>
<rect x="35.6879" y="4.69692" width="12.1277" height="12.7257" rx="3.23971" stroke="#CECECE" stroke-width="0.719936"/>
<path d="M42.8922 8.3313L40.1543 11.0599L42.8922 13.7884" stroke="#565656" stroke-width="0.719936" stroke-linecap="round" stroke-linejoin="round"/>
<g filter="url(#filter2_i_507_729)">
<rect x="47.9131" y="5.05664" width="11.4078" height="12.0057" rx="2.87974" fill="url(#paint1_linear_507_729)"/>
</g>
<rect x="47.5531" y="4.69667" width="12.1277" height="12.7257" rx="3.23971" stroke="#CECECE" stroke-width="0.719936"/>
<path d="M52.476 13.7883L55.2139 11.0598L52.476 8.33118" stroke="#565656" stroke-opacity="0.43" stroke-width="0.719936" stroke-linecap="round" stroke-linejoin="round"/>
<g filter="url(#filter3_i_507_729)">
<rect x="196.669" y="5.05676" width="265.573" height="12.0057" rx="2.87974" fill="url(#paint2_linear_507_729)"/>
</g>
<rect x="196.309" y="4.69679" width="266.293" height="12.7256" rx="3.23971" stroke="#CECECE" stroke-width="0.719936"/>
<g clip-path="url(#clip0_507_729)">
<path d="M202.934 13.2195C204.723 13.2195 206.174 11.7691 206.174 9.97983C206.174 8.19058 204.723 6.74011 202.934 6.74011C201.145 6.74011 199.694 8.19058 199.694 9.97983C199.694 11.7691 201.145 13.2195 202.934 13.2195Z" stroke="#A1A1A1" stroke-width="0.719936"/>
<path d="M208.333 15.3794L205.094 12.1396" stroke="#A1A1A1" stroke-width="0.719936"/>
<path d="M213.041 12.0728L213.813 12.0053C213.85 12.3147 213.934 12.5692 214.066 12.7689C214.201 12.9657 214.41 13.126 214.691 13.2498C214.972 13.3707 215.288 13.4312 215.64 13.4312C215.952 13.4312 216.228 13.3848 216.467 13.2919C216.706 13.1991 216.883 13.0726 216.998 12.9123C217.116 12.7492 217.175 12.572 217.175 12.3808C217.175 12.1867 217.119 12.018 217.007 11.8746C216.894 11.7283 216.709 11.606 216.45 11.5076C216.284 11.4429 215.917 11.3431 215.349 11.2081C214.781 11.0703 214.383 10.9409 214.155 10.82C213.86 10.6653 213.639 10.4741 213.493 10.2463C213.349 10.0157 213.278 9.75836 213.278 9.47432C213.278 9.16216 213.366 8.87109 213.543 8.60111C213.721 8.32833 213.979 8.12163 214.32 7.98101C214.66 7.8404 215.038 7.77009 215.454 7.77009C215.913 7.77009 216.316 7.84462 216.665 7.99367C217.017 8.13991 217.287 8.35645 217.475 8.6433C217.663 8.93015 217.765 9.25496 217.779 9.61774L216.994 9.6768C216.952 9.2859 216.808 8.99061 216.564 8.79094C216.322 8.59127 215.963 8.49144 215.488 8.49144C214.993 8.49144 214.632 8.58283 214.404 8.76563C214.179 8.94561 214.066 9.16356 214.066 9.41948C214.066 9.64165 214.147 9.82444 214.307 9.96787C214.464 10.1113 214.875 10.2589 215.539 10.4108C216.205 10.5598 216.662 10.6906 216.91 10.8031C217.27 10.969 217.535 11.1799 217.707 11.4359C217.878 11.689 217.964 11.9814 217.964 12.3133C217.964 12.6423 217.87 12.9531 217.682 13.2455C217.493 13.5352 217.222 13.7616 216.867 13.9247C216.516 14.085 216.119 14.1652 215.678 14.1652C215.118 14.1652 214.649 14.0836 214.269 13.9205C213.892 13.7574 213.595 13.5127 213.379 13.1865C213.165 12.8575 213.053 12.4862 213.041 12.0728ZM222.181 12.617L222.966 12.714C222.842 13.1724 222.613 13.5282 222.278 13.7813C221.944 14.0344 221.516 14.1609 220.996 14.1609C220.341 14.1609 219.821 13.9599 219.435 13.5577C219.053 13.1527 218.862 12.5861 218.862 11.8577C218.862 11.104 219.056 10.5191 219.444 10.1029C219.832 9.68664 220.335 9.47854 220.954 9.47854C221.553 9.47854 222.042 9.68242 222.422 10.0902C222.802 10.498 222.991 11.0717 222.991 11.8113C222.991 11.8563 222.99 11.9238 222.987 12.0138H219.646C219.674 12.5059 219.814 12.8828 220.064 13.1443C220.314 13.4058 220.626 13.5366 221 13.5366C221.279 13.5366 221.516 13.4635 221.713 13.3173C221.91 13.171 222.066 12.9376 222.181 12.617ZM219.688 11.3895H222.19C222.156 11.0126 222.061 10.73 221.903 10.5416C221.661 10.2491 221.348 10.1029 220.962 10.1029C220.614 10.1029 220.32 10.2196 220.081 10.453C219.844 10.6864 219.714 10.9986 219.688 11.3895ZM226.977 13.5071C226.695 13.7461 226.424 13.9149 226.162 14.0133C225.904 14.1117 225.625 14.1609 225.327 14.1609C224.835 14.1609 224.457 14.0414 224.192 13.8024C223.928 13.5605 223.796 13.2526 223.796 12.8785C223.796 12.6592 223.845 12.4595 223.944 12.2795C224.045 12.0967 224.176 11.9505 224.336 11.8408C224.499 11.7311 224.682 11.6482 224.884 11.5919C225.033 11.5526 225.258 11.5146 225.559 11.478C226.172 11.4049 226.624 11.3177 226.913 11.2165C226.916 11.1125 226.918 11.0464 226.918 11.0182C226.918 10.7089 226.846 10.4909 226.702 10.3644C226.508 10.1928 226.22 10.1071 225.838 10.1071C225.48 10.1071 225.216 10.1703 225.045 10.2969C224.876 10.4206 224.751 10.6414 224.669 10.9592L223.927 10.8579C223.994 10.5402 224.105 10.2842 224.26 10.0902C224.415 9.89334 224.638 9.74289 224.931 9.63883C225.223 9.53197 225.562 9.47854 225.947 9.47854C226.33 9.47854 226.64 9.52353 226.88 9.61352C227.119 9.70352 227.294 9.81741 227.407 9.95521C227.519 10.0902 227.598 10.2617 227.643 10.4699C227.668 10.5992 227.681 10.8326 227.681 11.1701V12.1825C227.681 12.8884 227.696 13.3355 227.727 13.524C227.761 13.7096 227.826 13.8881 227.921 14.0597H227.128C227.05 13.9022 226.999 13.718 226.977 13.5071ZM226.913 11.8113C226.638 11.9238 226.224 12.0194 225.673 12.0981C225.361 12.1431 225.14 12.1938 225.011 12.25C224.881 12.3063 224.782 12.3892 224.711 12.4989C224.641 12.6058 224.606 12.7253 224.606 12.8575C224.606 13.0599 224.682 13.2287 224.834 13.3637C224.988 13.4986 225.213 13.5661 225.509 13.5661C225.801 13.5661 226.061 13.5029 226.289 13.3763C226.517 13.247 226.684 13.0712 226.791 12.849C226.873 12.6775 226.913 12.4244 226.913 12.0897V11.8113ZM228.983 14.0597V9.57978H229.667V10.2589C229.841 9.94115 230.001 9.73164 230.148 9.6304C230.297 9.52916 230.46 9.47854 230.637 9.47854C230.893 9.47854 231.153 9.56009 231.417 9.7232L231.156 10.4277C230.97 10.318 230.785 10.2632 230.599 10.2632C230.433 10.2632 230.284 10.3138 230.152 10.415C230.02 10.5134 229.925 10.6512 229.869 10.8284C229.785 11.0984 229.743 11.3937 229.743 11.7143V14.0597H228.983ZM234.922 12.4187L235.668 12.5158C235.587 13.0304 235.377 13.434 235.04 13.7264C234.705 14.0161 234.293 14.1609 233.804 14.1609C233.191 14.1609 232.697 13.9613 232.323 13.5619C231.952 13.1598 231.766 12.5847 231.766 11.8366C231.766 11.3529 231.846 10.9297 232.007 10.5669C232.167 10.2041 232.41 9.93271 232.737 9.75273C233.066 9.56993 233.423 9.47854 233.808 9.47854C234.294 9.47854 234.692 9.60228 235.002 9.84975C235.311 10.0944 235.509 10.4431 235.597 10.8959L234.858 11.0098C234.788 10.7089 234.663 10.4825 234.483 10.3306C234.306 10.1788 234.091 10.1029 233.837 10.1029C233.455 10.1029 233.144 10.2407 232.905 10.5163C232.666 10.789 232.547 11.2221 232.547 11.8155C232.547 12.4173 232.662 12.8546 232.893 13.1274C233.123 13.4002 233.424 13.5366 233.795 13.5366C234.093 13.5366 234.342 13.4452 234.542 13.2624C234.742 13.0796 234.868 12.7984 234.922 12.4187ZM236.447 14.0597V7.87555H237.207V10.0944C237.561 9.68383 238.008 9.47854 238.548 9.47854C238.88 9.47854 239.168 9.54462 239.413 9.6768C239.658 9.80616 239.832 9.98615 239.936 10.2168C240.043 10.4474 240.096 10.782 240.096 11.2207V14.0597H239.337V11.2207C239.337 10.8411 239.254 10.5655 239.088 10.3939C238.925 10.2196 238.693 10.1324 238.392 10.1324C238.167 10.1324 237.955 10.1914 237.755 10.3096C237.558 10.4249 237.418 10.5823 237.333 10.782C237.249 10.9817 237.207 11.2573 237.207 11.6088V14.0597H236.447ZM243.637 11.8197C243.637 10.9901 243.868 10.3756 244.329 9.9763C244.715 9.64446 245.184 9.47854 245.738 9.47854C246.354 9.47854 246.857 9.68102 247.248 10.086C247.639 10.4881 247.835 11.045 247.835 11.7565C247.835 12.333 247.748 12.7871 247.573 13.119C247.402 13.448 247.15 13.7039 246.818 13.8867C246.489 14.0695 246.129 14.1609 245.738 14.1609C245.111 14.1609 244.603 13.9599 244.215 13.5577C243.83 13.1556 243.637 12.5762 243.637 11.8197ZM244.418 11.8197C244.418 12.3934 244.543 12.8237 244.793 13.1106C245.044 13.3946 245.359 13.5366 245.738 13.5366C246.115 13.5366 246.429 13.3932 246.679 13.1063C246.929 12.8195 247.054 12.3822 247.054 11.7944C247.054 11.2404 246.928 10.8214 246.675 10.5373C246.424 10.2505 246.112 10.1071 245.738 10.1071C245.359 10.1071 245.044 10.2491 244.793 10.5331C244.543 10.8172 244.418 11.246 244.418 11.8197ZM248.85 14.0597V9.57978H249.534V10.2589C249.708 9.94115 249.868 9.73164 250.014 9.6304C250.164 9.52916 250.327 9.47854 250.504 9.47854C250.76 9.47854 251.02 9.56009 251.284 9.7232L251.023 10.4277C250.837 10.318 250.651 10.2632 250.466 10.2632C250.3 10.2632 250.151 10.3138 250.019 10.415C249.887 10.5134 249.792 10.6512 249.736 10.8284C249.652 11.0984 249.609 11.3937 249.609 11.7143V14.0597H248.85ZM257.466 12.617L258.251 12.714C258.127 13.1724 257.898 13.5282 257.563 13.7813C257.228 14.0344 256.801 14.1609 256.281 14.1609C255.625 14.1609 255.105 13.9599 254.72 13.5577C254.337 13.1527 254.146 12.5861 254.146 11.8577C254.146 11.104 254.34 10.5191 254.728 10.1029C255.116 9.68664 255.62 9.47854 256.238 9.47854C256.837 9.47854 257.327 9.68242 257.706 10.0902C258.086 10.498 258.276 11.0717 258.276 11.8113C258.276 11.8563 258.274 11.9238 258.272 12.0138H254.931C254.959 12.5059 255.098 12.8828 255.348 13.1443C255.599 13.4058 255.911 13.5366 256.285 13.5366C256.563 13.5366 256.801 13.4635 256.998 13.3173C257.195 13.171 257.351 12.9376 257.466 12.617ZM254.973 11.3895H257.474C257.441 11.0126 257.345 10.73 257.188 10.5416C256.946 10.2491 256.632 10.1029 256.247 10.1029C255.898 10.1029 255.604 10.2196 255.365 10.453C255.129 10.6864 254.998 10.9986 254.973 11.3895ZM259.338 14.0597V9.57978H260.021V10.2168C260.35 9.72461 260.825 9.47854 261.447 9.47854C261.717 9.47854 261.964 9.52775 262.189 9.62618C262.417 9.7218 262.587 9.84835 262.7 10.0058C262.812 10.1633 262.891 10.3503 262.936 10.5669C262.964 10.7075 262.978 10.9536 262.978 11.3051V14.0597H262.219V11.3346C262.219 11.0253 262.189 10.7947 262.13 10.6428C262.071 10.4881 261.966 10.3658 261.814 10.2758C261.665 10.183 261.489 10.1366 261.287 10.1366C260.963 10.1366 260.683 10.2393 260.447 10.4445C260.214 10.6498 260.097 11.0393 260.097 11.613V14.0597H259.338ZM265.934 13.3805L266.044 14.0513C265.83 14.0963 265.639 14.1187 265.47 14.1187C265.194 14.1187 264.981 14.0752 264.829 13.988C264.677 13.9008 264.57 13.7869 264.508 13.6463C264.446 13.5029 264.415 13.2034 264.415 12.7478V10.1703H263.859V9.57978H264.415V8.47034L265.171 8.01476V9.57978H265.934V10.1703H265.171V12.79C265.171 13.0065 265.183 13.1457 265.209 13.2076C265.237 13.2694 265.28 13.3187 265.339 13.3552C265.401 13.3918 265.488 13.4101 265.601 13.4101C265.685 13.4101 265.796 13.4002 265.934 13.3805ZM269.877 12.617L270.662 12.714C270.538 13.1724 270.309 13.5282 269.974 13.7813C269.639 14.0344 269.212 14.1609 268.692 14.1609C268.036 14.1609 267.516 13.9599 267.131 13.5577C266.748 13.1527 266.557 12.5861 266.557 11.8577C266.557 11.104 266.751 10.5191 267.139 10.1029C267.527 9.68664 268.031 9.47854 268.65 9.47854C269.249 9.47854 269.738 9.68242 270.118 10.0902C270.497 10.498 270.687 11.0717 270.687 11.8113C270.687 11.8563 270.686 11.9238 270.683 12.0138H267.342C267.37 12.5059 267.509 12.8828 267.759 13.1443C268.01 13.4058 268.322 13.5366 268.696 13.5366C268.974 13.5366 269.212 13.4635 269.409 13.3173C269.606 13.171 269.762 12.9376 269.877 12.617ZM267.384 11.3895H269.886C269.852 11.0126 269.756 10.73 269.599 10.5416C269.357 10.2491 269.043 10.1029 268.658 10.1029C268.309 10.1029 268.015 10.2196 267.776 10.453C267.54 10.6864 267.409 10.9986 267.384 11.3895ZM271.74 14.0597V9.57978H272.424V10.2589C272.598 9.94115 272.758 9.73164 272.905 9.6304C273.054 9.52916 273.217 9.47854 273.394 9.47854C273.65 9.47854 273.91 9.56009 274.174 9.7232L273.913 10.4277C273.727 10.318 273.542 10.2632 273.356 10.2632C273.19 10.2632 273.041 10.3138 272.909 10.415C272.777 10.5134 272.683 10.6512 272.626 10.8284C272.542 11.0984 272.5 11.3937 272.5 11.7143V14.0597H271.74ZM278.116 14.0597L276.745 9.57978H277.53L278.243 12.1656L278.509 13.1274C278.52 13.0796 278.597 12.7717 278.741 12.2036L279.453 9.57978H280.234L280.905 12.1783L281.128 13.0346L281.386 12.1699L282.153 9.57978H282.891L281.491 14.0597H280.702L279.989 11.3768L279.816 10.6133L278.909 14.0597H278.116ZM286.729 12.617L287.514 12.714C287.39 13.1724 287.161 13.5282 286.826 13.7813C286.491 14.0344 286.064 14.1609 285.544 14.1609C284.888 14.1609 284.368 13.9599 283.983 13.5577C283.6 13.1527 283.409 12.5861 283.409 11.8577C283.409 11.104 283.603 10.5191 283.991 10.1029C284.379 9.68664 284.883 9.47854 285.501 9.47854C286.1 9.47854 286.59 9.68242 286.969 10.0902C287.349 10.498 287.539 11.0717 287.539 11.8113C287.539 11.8563 287.538 11.9238 287.535 12.0138H284.194C284.222 12.5059 284.361 12.8828 284.611 13.1443C284.862 13.4058 285.174 13.5366 285.548 13.5366C285.826 13.5366 286.064 13.4635 286.261 13.3173C286.458 13.171 286.614 12.9376 286.729 12.617ZM284.236 11.3895H286.737C286.704 11.0126 286.608 10.73 286.451 10.5416C286.209 10.2491 285.895 10.1029 285.51 10.1029C285.161 10.1029 284.867 10.2196 284.628 10.453C284.392 10.6864 284.261 10.9986 284.236 11.3895ZM289.301 14.0597H288.597V7.87555H289.356V10.0818C289.676 9.67961 290.086 9.47854 290.583 9.47854C290.859 9.47854 291.119 9.53478 291.364 9.64727C291.611 9.75695 291.814 9.91303 291.971 10.1155C292.132 10.3152 292.257 10.557 292.347 10.8411C292.437 11.1251 292.482 11.4288 292.482 11.7522C292.482 12.52 292.292 13.1134 291.912 13.5324C291.533 13.9514 291.077 14.1609 290.545 14.1609C290.017 14.1609 289.602 13.9402 289.301 13.4986V14.0597ZM289.293 11.786C289.293 12.3231 289.366 12.7112 289.512 12.9503C289.751 13.3412 290.074 13.5366 290.482 13.5366C290.814 13.5366 291.101 13.3932 291.343 13.1063C291.585 12.8167 291.706 12.3864 291.706 11.8155C291.706 11.2306 291.589 10.7989 291.355 10.5205C291.125 10.2421 290.845 10.1029 290.516 10.1029C290.184 10.1029 289.897 10.2477 289.655 10.5373C289.414 10.8242 289.293 11.2404 289.293 11.786ZM293.236 12.7225L293.986 12.6044C294.029 12.9053 294.145 13.1359 294.337 13.2962C294.531 13.4565 294.801 13.5366 295.147 13.5366C295.495 13.5366 295.754 13.4663 295.923 13.3257C296.091 13.1823 296.176 13.0149 296.176 12.8237C296.176 12.6522 296.101 12.5172 295.952 12.4187C295.848 12.3513 295.589 12.2655 295.176 12.1614C294.619 12.0208 294.233 11.8999 294.016 11.7986C293.802 11.6946 293.639 11.5526 293.527 11.3726C293.417 11.1898 293.362 10.9887 293.362 10.7694C293.362 10.5697 293.407 10.3855 293.497 10.2168C293.59 10.0452 293.715 9.90319 293.873 9.7907C293.991 9.70352 294.151 9.6304 294.353 9.57134C294.559 9.50947 294.778 9.47854 295.012 9.47854C295.363 9.47854 295.671 9.52916 295.935 9.6304C296.203 9.73164 296.399 9.86944 296.526 10.0438C296.652 10.2153 296.74 10.446 296.787 10.7356L296.045 10.8369C296.011 10.6062 295.913 10.4263 295.75 10.2969C295.589 10.1675 295.362 10.1029 295.066 10.1029C294.718 10.1029 294.469 10.1605 294.32 10.2758C294.171 10.3911 294.096 10.5261 294.096 10.6808C294.096 10.7792 294.127 10.8678 294.189 10.9465C294.251 11.0281 294.348 11.0956 294.48 11.149C294.556 11.1771 294.78 11.2418 295.151 11.3431C295.688 11.4865 296.062 11.6046 296.273 11.6974C296.487 11.7874 296.654 11.9196 296.775 12.0939C296.896 12.2683 296.956 12.4848 296.956 12.7436C296.956 12.9967 296.882 13.2357 296.733 13.4607C296.586 13.6829 296.374 13.8558 296.096 13.9795C295.817 14.1005 295.502 14.1609 295.151 14.1609C294.569 14.1609 294.124 14.04 293.818 13.7982C293.514 13.5563 293.32 13.1977 293.236 12.7225ZM297.993 8.74876V7.87555H298.752V8.74876H297.993ZM297.993 14.0597V9.57978H298.752V14.0597H297.993ZM301.7 13.3805L301.809 14.0513C301.595 14.0963 301.404 14.1187 301.236 14.1187C300.96 14.1187 300.746 14.0752 300.594 13.988C300.442 13.9008 300.336 13.7869 300.274 13.6463C300.212 13.5029 300.181 13.2034 300.181 12.7478V10.1703H299.624V9.57978H300.181V8.47034L300.936 8.01476V9.57978H301.7V10.1703H300.936V12.79C300.936 13.0065 300.949 13.1457 300.974 13.2076C301.002 13.2694 301.046 13.3187 301.105 13.3552C301.167 13.3918 301.254 13.4101 301.366 13.4101C301.451 13.4101 301.562 13.4002 301.7 13.3805ZM305.643 12.617L306.427 12.714C306.303 13.1724 306.074 13.5282 305.74 13.7813C305.405 14.0344 304.977 14.1609 304.457 14.1609C303.802 14.1609 303.282 13.9599 302.896 13.5577C302.514 13.1527 302.323 12.5861 302.323 11.8577C302.323 11.104 302.517 10.5191 302.905 10.1029C303.293 9.68664 303.796 9.47854 304.415 9.47854C305.014 9.47854 305.503 9.68242 305.883 10.0902C306.263 10.498 306.452 11.0717 306.452 11.8113C306.452 11.8563 306.451 11.9238 306.448 12.0138H303.107C303.135 12.5059 303.275 12.8828 303.525 13.1443C303.775 13.4058 304.087 13.5366 304.461 13.5366C304.74 13.5366 304.977 13.4635 305.174 13.3173C305.371 13.171 305.527 12.9376 305.643 12.617ZM303.149 11.3895H305.651C305.617 11.0126 305.522 10.73 305.364 10.5416C305.122 10.2491 304.809 10.1029 304.423 10.1029C304.075 10.1029 303.781 10.2196 303.542 10.453C303.306 10.6864 303.175 10.9986 303.149 11.3895ZM310.048 14.0597V9.57978H310.732V10.2168C311.061 9.72461 311.536 9.47854 312.158 9.47854C312.428 9.47854 312.675 9.52775 312.9 9.62618C313.128 9.7218 313.298 9.84835 313.41 10.0058C313.523 10.1633 313.602 10.3503 313.647 10.5669C313.675 10.7075 313.689 10.9536 313.689 11.3051V14.0597H312.93V11.3346C312.93 11.0253 312.9 10.7947 312.841 10.6428C312.782 10.4881 312.676 10.3658 312.525 10.2758C312.375 10.183 312.2 10.1366 311.997 10.1366C311.674 10.1366 311.394 10.2393 311.158 10.4445C310.924 10.6498 310.808 11.0393 310.808 11.613V14.0597H310.048ZM317.91 13.5071C317.629 13.7461 317.358 13.9149 317.096 14.0133C316.837 14.1117 316.559 14.1609 316.261 14.1609C315.769 14.1609 315.39 14.0414 315.126 13.8024C314.862 13.5605 314.73 13.2526 314.73 12.8785C314.73 12.6592 314.779 12.4595 314.877 12.2795C314.978 12.0967 315.109 11.9505 315.27 11.8408C315.433 11.7311 315.615 11.6482 315.818 11.5919C315.967 11.5526 316.192 11.5146 316.493 11.478C317.106 11.4049 317.557 11.3177 317.847 11.2165C317.85 11.1125 317.851 11.0464 317.851 11.0182C317.851 10.7089 317.779 10.4909 317.636 10.3644C317.442 10.1928 317.154 10.1071 316.771 10.1071C316.414 10.1071 316.15 10.1703 315.978 10.2969C315.809 10.4206 315.684 10.6414 315.603 10.9592L314.86 10.8579C314.928 10.5402 315.039 10.2842 315.194 10.0902C315.348 9.89334 315.572 9.74289 315.864 9.63883C316.157 9.53197 316.496 9.47854 316.881 9.47854C317.263 9.47854 317.574 9.52353 317.813 9.61352C318.052 9.70352 318.228 9.81741 318.341 9.95521C318.453 10.0902 318.532 10.2617 318.577 10.4699C318.602 10.5992 318.615 10.8326 318.615 11.1701V12.1825C318.615 12.8884 318.63 13.3355 318.661 13.524C318.695 13.7096 318.76 13.8881 318.855 14.0597H318.062C317.983 13.9022 317.933 13.718 317.91 13.5071ZM317.847 11.8113C317.571 11.9238 317.158 12.0194 316.607 12.0981C316.295 12.1431 316.074 12.1938 315.944 12.25C315.815 12.3063 315.715 12.3892 315.645 12.4989C315.575 12.6058 315.54 12.7253 315.54 12.8575C315.54 13.0599 315.615 13.2287 315.767 13.3637C315.922 13.4986 316.147 13.5661 316.442 13.5661C316.735 13.5661 316.995 13.5029 317.223 13.3763C317.45 13.247 317.618 13.0712 317.725 12.849C317.806 12.6775 317.847 12.4244 317.847 12.0897V11.8113ZM319.925 14.0597V9.57978H320.605V10.2083C320.745 9.98896 320.932 9.81319 321.166 9.68102C321.399 9.54603 321.665 9.47854 321.963 9.47854C322.295 9.47854 322.566 9.54744 322.777 9.68524C322.991 9.82304 323.141 10.0157 323.228 10.2632C323.583 9.74008 324.044 9.47854 324.612 9.47854C325.056 9.47854 325.398 9.60228 325.637 9.84975C325.876 10.0944 325.996 10.4727 325.996 10.9845V14.0597H325.241V11.2376C325.241 10.9339 325.215 10.7159 325.165 10.5838C325.117 10.4488 325.028 10.3405 324.899 10.2589C324.77 10.1774 324.618 10.1366 324.443 10.1366C324.128 10.1366 323.867 10.2421 323.659 10.453C323.451 10.6611 323.347 10.9957 323.347 11.457V14.0597H322.587V11.149C322.587 10.8115 322.525 10.5584 322.402 10.3897C322.278 10.221 322.075 10.1366 321.794 10.1366C321.58 10.1366 321.382 10.1928 321.199 10.3053C321.019 10.4178 320.889 10.5823 320.807 10.7989C320.726 11.0154 320.685 11.3276 320.685 11.7354V14.0597H319.925ZM330.318 12.617L331.103 12.714C330.979 13.1724 330.75 13.5282 330.415 13.7813C330.081 14.0344 329.653 14.1609 329.133 14.1609C328.478 14.1609 327.957 13.9599 327.572 13.5577C327.19 13.1527 326.998 12.5861 326.998 11.8577C326.998 11.104 327.193 10.5191 327.581 10.1029C327.969 9.68664 328.472 9.47854 329.091 9.47854C329.69 9.47854 330.179 9.68242 330.559 10.0902C330.938 10.498 331.128 11.0717 331.128 11.8113C331.128 11.8563 331.127 11.9238 331.124 12.0138H327.783C327.811 12.5059 327.95 12.8828 328.201 13.1443C328.451 13.4058 328.763 13.5366 329.137 13.5366C329.416 13.5366 329.653 13.4635 329.85 13.3173C330.047 13.171 330.203 12.9376 330.318 12.617ZM327.825 11.3895H330.327C330.293 11.0126 330.197 10.73 330.04 10.5416C329.798 10.2491 329.484 10.1029 329.099 10.1029C328.751 10.1029 328.457 10.2196 328.218 10.453C327.981 10.6864 327.851 10.9986 327.825 11.3895Z" fill="#B9B9B9"/>
</g>
<rect x="0.457031" y="20.8826" width="657.087" height="0.545715" fill="#B1B1B1"/>
<g filter="url(#filter4_i_507_729)">
<rect x="616.476" y="5.05664" width="16.8835" height="12.0057" rx="2.87974" fill="url(#paint3_linear_507_729)"/>
</g>
<rect x="616.116" y="4.69667" width="17.6034" height="12.7257" rx="3.23971" stroke="#CECECE" stroke-width="0.719936"/>
<path fill-rule="evenodd" clip-rule="evenodd" d="M625.147 14.8798C626.911 14.8798 628.341 13.1695 628.341 11.0597C628.341 8.95002 626.911 7.23975 625.147 7.23975C623.383 7.23975 621.953 8.95002 621.953 11.0597C621.953 13.1695 623.383 14.8798 625.147 14.8798ZM624.691 8.87678H625.603V11.1961H627.123L625.147 13.2425L623.171 11.1961L624.691 11.1961V8.87678Z" fill="#565656"/>
<g filter="url(#filter5_i_507_729)">
<rect x="637.009" y="5.05688" width="16.8835" height="12.0057" rx="2.87974" fill="url(#paint4_linear_507_729)"/>
</g>
<rect x="636.649" y="4.69692" width="17.6034" height="12.7257" rx="3.23971" stroke="#CECECE" stroke-width="0.719936"/>
<rect x="643.301" y="9.78282" width="3.38687" height="4.1915" rx="0.359968" stroke="#565656" stroke-width="0.719936"/>
<path d="M647.733 12.4241H647.926C648.324 12.4241 648.646 12.1018 648.646 11.7042V8.23263C648.646 7.83502 648.324 7.5127 647.926 7.5127H645.259C644.861 7.5127 644.539 7.83502 644.539 8.23263V8.60412" stroke="#565656" stroke-width="0.719936"/>
<defs>
<filter id="filter0_i_507_729" x="0.457031" y="0.690918" width="657.088" height="20.7372" filterUnits="userSpaceOnUse" color-interpolation-filters="sRGB">
<feFlood flood-opacity="0" result="BackgroundImageFix"/>
<feBlend mode="normal" in="SourceGraphic" in2="BackgroundImageFix" result="shape"/>
<feColorMatrix in="SourceAlpha" type="matrix" values="0 0 0 0 0 0 0 0 0 0 0 0 0 0 0 0 0 0 127 0" result="hardAlpha"/>
<feOffset dy="0.719936"/>
<feComposite in2="hardAlpha" operator="arithmetic" k2="-1" k3="1"/>
<feColorMatrix type="matrix" values="0 0 0 0 0.94902 0 0 0 0 0.952941 0 0 0 0 0.960784 0 0 0 1 0"/>
<feBlend mode="normal" in2="shape" result="effect1_innerShadow_507_729"/>
</filter>
<filter id="filter1_i_507_729" x="35.3281" y="4.33691" width="12.8477" height="13.4457" filterUnits="userSpaceOnUse" color-interpolation-filters="sRGB">
<feFlood flood-opacity="0" result="BackgroundImageFix"/>
<feBlend mode="normal" in="SourceGraphic" in2="BackgroundImageFix" result="shape"/>
<feColorMatrix in="SourceAlpha" type="matrix" values="0 0 0 0 0 0 0 0 0 0 0 0 0 0 0 0 0 0 127 0" result="hardAlpha"/>
<feOffset dy="0.719936"/>
<feComposite in2="hardAlpha" operator="arithmetic" k2="-1" k3="1"/>
<feColorMatrix type="matrix" values="0 0 0 0 1 0 0 0 0 1 0 0 0 0 1 0 0 0 1 0"/>
<feBlend mode="normal" in2="shape" result="effect1_innerShadow_507_729"/>
</filter>
<filter id="filter2_i_507_729" x="47.1934" y="4.33667" width="12.8477" height="13.4457" filterUnits="userSpaceOnUse" color-interpolation-filters="sRGB">
<feFlood flood-opacity="0" result="BackgroundImageFix"/>
<feBlend mode="normal" in="SourceGraphic" in2="BackgroundImageFix" result="shape"/>
<feColorMatrix in="SourceAlpha" type="matrix" values="0 0 0 0 0 0 0 0 0 0 0 0 0 0 0 0 0 0 127 0" result="hardAlpha"/>
<feOffset dy="0.719936"/>
<feComposite in2="hardAlpha" operator="arithmetic" k2="-1" k3="1"/>
<feColorMatrix type="matrix" values="0 0 0 0 1 0 0 0 0 1 0 0 0 0 1 0 0 0 1 0"/>
<feBlend mode="normal" in2="shape" result="effect1_innerShadow_507_729"/>
</filter>
<filter id="filter3_i_507_729" x="195.949" y="4.33679" width="267.013" height="13.4456" filterUnits="userSpaceOnUse" color-interpolation-filters="sRGB">
<feFlood flood-opacity="0" result="BackgroundImageFix"/>
<feBlend mode="normal" in="SourceGraphic" in2="BackgroundImageFix" result="shape"/>
<feColorMatrix in="SourceAlpha" type="matrix" values="0 0 0 0 0 0 0 0 0 0 0 0 0 0 0 0 0 0 127 0" result="hardAlpha"/>
<feOffset dy="0.719936"/>
<feComposite in2="hardAlpha" operator="arithmetic" k2="-1" k3="1"/>
<feColorMatrix type="matrix" values="0 0 0 0 1 0 0 0 0 1 0 0 0 0 1 0 0 0 1 0"/>
<feBlend mode="normal" in2="shape" result="effect1_innerShadow_507_729"/>
</filter>
<filter id="filter4_i_507_729" x="615.756" y="4.33667" width="18.3232" height="13.4457" filterUnits="userSpaceOnUse" color-interpolation-filters="sRGB">
<feFlood flood-opacity="0" result="BackgroundImageFix"/>
<feBlend mode="normal" in="SourceGraphic" in2="BackgroundImageFix" result="shape"/>
<feColorMatrix in="SourceAlpha" type="matrix" values="0 0 0 0 0 0 0 0 0 0 0 0 0 0 0 0 0 0 127 0" result="hardAlpha"/>
<feOffset dy="0.719936"/>
<feComposite in2="hardAlpha" operator="arithmetic" k2="-1" k3="1"/>
<feColorMatrix type="matrix" values="0 0 0 0 1 0 0 0 0 1 0 0 0 0 1 0 0 0 1 0"/>
<feBlend mode="normal" in2="shape" result="effect1_innerShadow_507_729"/>
</filter>
<filter id="filter5_i_507_729" x="636.289" y="4.33691" width="18.3232" height="13.4457" filterUnits="userSpaceOnUse" color-interpolation-filters="sRGB">
<feFlood flood-opacity="0" result="BackgroundImageFix"/>
<feBlend mode="normal" in="SourceGraphic" in2="BackgroundImageFix" result="shape"/>
<feColorMatrix in="SourceAlpha" type="matrix" values="0 0 0 0 0 0 0 0 0 0 0 0 0 0 0 0 0 0 127 0" result="hardAlpha"/>
<feOffset dy="0.719936"/>
<feComposite in2="hardAlpha" operator="arithmetic" k2="-1" k3="1"/>
<feColorMatrix type="matrix" values="0 0 0 0 1 0 0 0 0 1 0 0 0 0 1 0 0 0 1 0"/>
<feBlend mode="normal" in2="shape" result="effect1_innerShadow_507_729"/>
</filter>
<linearGradient id="paint0_linear_507_729" x1="41.7517" y1="5.05688" x2="41.7517" y2="17.0626" gradientUnits="userSpaceOnUse">
<stop stop-color="#FBFBFB"/>
<stop offset="1" stop-color="#F3F3F3"/>
</linearGradient>
<linearGradient id="paint1_linear_507_729" x1="53.617" y1="5.05664" x2="53.617" y2="17.0624" gradientUnits="userSpaceOnUse">
<stop stop-color="#FBFBFB"/>
<stop offset="1" stop-color="#F3F3F3"/>
</linearGradient>
<linearGradient id="paint2_linear_507_729" x1="329.455" y1="5.05676" x2="329.455" y2="17.0625" gradientUnits="userSpaceOnUse">
<stop stop-color="#FBFBFB"/>
<stop offset="1" stop-color="#F3F3F3"/>
</linearGradient>
<linearGradient id="paint3_linear_507_729" x1="624.917" y1="5.05664" x2="624.917" y2="17.0624" gradientUnits="userSpaceOnUse">
<stop stop-color="#FBFBFB"/>
<stop offset="1" stop-color="#F3F3F3"/>
</linearGradient>
<linearGradient id="paint4_linear_507_729" x1="645.451" y1="5.05688" x2="645.451" y2="17.0626" gradientUnits="userSpaceOnUse">
<stop stop-color="#FBFBFB"/>
<stop offset="1" stop-color="#F3F3F3"/>
</linearGradient>
<clipPath id="clip0_507_729">
<rect width="133.398" height="10" fill="white" transform="translate(198.975 6.05969)"/>
</clipPath>
</defs>
</svg>
